<?xml version="1.0" encoding="utf-8"?>
<!-- Generator: Adobe Illustrator 21.1.0, SVG Export Plug-In . SVG Version: 6.00 Build 0)  -->
<svg version="1.1" id="圖層_1" xmlns="http://www.w3.org/2000/svg" xmlns:xlink="http://www.w3.org/1999/xlink" x="0px" y="0px"
	 viewBox="0 0 554.5 144.9" style="enable-background:new 0 0 554.5 144.9;" xml:space="preserve">
<path d="M295.5,15.6c4.9,0,8.6,1.9,8.6,1.9l1.5-3.4c0,0-5.4-2.6-11.2-2.5c-13,0.3-21.2,8.4-26.3,17c-2.9,4.9-6.7,12.2-9,18.6
	c-2.1,6-6,16.5-7.5,20c-4.7,10.8-8.7,15.5-18,15.1c-5.9-0.2-12.2-4.9-12.2-4.9l-2.1,3.1c1.7,1.6,8.1,5.9,16.8,6.1
	c10.7,0.2,18.5-5.2,23.9-13c3.9-5.6,7.5-14,10.7-22.3c3-8,5.7-18.1,9.3-24.8C283.4,19.5,288.9,15.6,295.5,15.6"/>
<polygon points="359.9,79.7 323.7,79.7 323.7,49.6 356.4,49.6 356.4,44.4 323.7,44.4 323.7,18.1 359.7,18.1 359.8,13 311.3,13 
	311.3,84.9 359.9,84.9 "/>
<rect x="201.8" y="13" width="12.4" height="71.9"/>
<path d="M467.3,49c0-8.7-4.1-36-39.1-36h-24.7v71.9c0,0,22.8,0,24.8,0C464.4,84.9,467.3,55.6,467.3,49 M415.8,79.7V18.1h11.8
	c22.3,0,27.3,16,27.3,30.8c0,16.1-5.9,30.8-27.3,30.8H415.8z"/>
<path d="M514.9,12c-23.7,0-39.7,16.2-39.7,37s16,37,39.7,37s39.7-16.1,39.7-37C554.5,28.1,538.6,12,514.9,12 M514.9,81.4
	c-24.8,0-27.3-22.3-27.3-32.5c0-9.6,2.2-32.5,27.2-32.5c24.8,0,27.3,22.3,27.3,32.5C542.1,58.5,539.9,81.4,514.9,81.4"/>
<polygon points="133.7,13 121.3,13 121.3,84.9 133.7,84.9 133.7,50.1 172.4,50.1 172.4,84.9 184.8,84.9 184.8,13 172.4,13 172.4,45 
	133.7,45 "/>
<rect x="374" y="13" width="12.4" height="71.9"/>
<path d="M116,4.6c10.8-0.1,17.7,4,17.7,4l1.9-3.9c0,0-8.2-5-21.7-4.7C97.4,0.4,83.4,11.1,76.2,22c-5.3,8-8.8,15.7-11.6,23.8
	c-1.9,5.3-5.1,13-7.7,18.6C51.5,76,42.4,86,28.1,85.2C13.6,84.3,3.3,73.8,3.3,73.8L0,77.2c6.5,6.4,17.3,12.6,30.5,13.1
	c14.3,0.5,30.8-8.2,38.4-20.9c2.3-3.8,6.5-11.6,9.1-20c3.4-10.8,5.6-18.7,9.2-25.6C90.7,17,100.4,4.7,116,4.6"/>
<path d="M261.9,113.8l-11.4,24.4h2.3l3-6.6h13.9l3.1,6.6h4.7L266,113.8H261.9z M256.7,129.6l6-13.1l6.1,13.1H256.7z"/>
<polygon points="376.3,113.8 372,113.8 372,138.1 376.3,138.1 376.3,125.9 388.2,138.1 394.1,138.1 380.5,124.3 392.3,113.8 
	388.9,113.8 376.3,124.9 "/>
<path d="M146,134.9v-9.2h-9.1v1.9h4.7v8c-1.3,0.7-3.2,1.2-5.1,1.2c-5.9,0-10.2-4.2-10.2-10.8c0-6.7,3.9-10.7,9.9-10.7
	c3.5,0,5.9,1.3,7.7,3.1l1.3-1.4c-1.8-1.8-4.8-3.7-9.6-3.7c-8.5,0-13.8,5.2-13.8,12.6c0,8.1,6,12.7,14.1,12.7
	C140.6,138.6,143.9,136.6,146,134.9"/>
<rect x="163" y="113.8" width="4.3" height="24.4"/>
<polygon points="206.5,138.1 206.5,113.8 204.5,113.8 204.5,133.1 189,113.8 184.9,113.8 184.9,138.1 186.9,138.1 186.9,117.9 
	203.3,138.1 "/>
<polygon points="219.5,138.1 240.2,138.1 240.2,136.2 225,136.2 239.6,115.7 239.6,113.8 220.5,113.8 220.5,115.7 234.3,115.7 
	219.5,136.5 "/>
<polygon points="312.2,138.1 312.2,115.7 320.4,115.7 320.4,113.8 299.6,113.8 299.6,115.7 307.8,115.7 307.8,138.1 "/>
<path d="M331.6,126c0,8.1,6.4,12.6,13.9,12.6s13.9-4.6,13.9-12.6c0-8.1-6.4-12.7-13.9-12.7C338,113.3,331.6,117.9,331.6,126
	 M355,126c0,6.5-3.7,10.9-9.4,10.9c-5.7,0-9.4-4.4-9.4-10.9c0-6.5,3.7-11,9.4-11C351.3,115,355,119.5,355,126"/>
<polygon points="412.9,138.1 417.3,138.1 417.3,127.7 427.1,113.8 424.6,113.8 416.4,125.4 408.5,113.8 403.1,113.8 412.9,127.7 "/>
<path d="M447.8,113.3c-7.5,0-13.9,4.6-13.9,12.7s6.4,12.6,13.9,12.6s13.9-4.6,13.9-12.6C461.8,117.9,455.4,113.3,447.8,113.3
	 M447.8,136.9c-5.7,0-9.4-4.4-9.4-10.9c0-6.5,3.7-11,9.4-11c5.7,0,9.4,4.5,9.4,11C457.2,132.5,453.6,136.9,447.8,136.9"/>
</svg>
